<?xml version="1.0" encoding="UTF-8"?><svg version="1.1" viewBox="0 0 112 94" xmlns="http://www.w3.org/2000/svg" xmlns:xlink="http://www.w3.org/1999/xlink"><!--Generated by IJSVG (https://github.com/curthard89/IJSVG)--><g transform="translate(-694, -298)"><g transform="translate(696, 300)"><g fill="none" fill-rule="evenodd" stroke="#263238" stroke-linecap="round" stroke-linejoin="round" stroke-width="3.5"><path d="M30.8825,2.74156c-5.91543,0.0182002 -16.2121,-1.57182 -16.2121,-1.57182c-8.78439,-1.16456 -14.6704,4.96481 -13.1461,13.6942l2.94422,16.8612c0.491736,2.81612 1.69584,5.37024 3.39748,7.50435c-0.0480812,3.04198 -0.107178,11.5592 0.53105,19.6722c0.675923,8.59215 2.27662,16.6915 2.74443,18.0837c1.08993,3.2437 5.98363,6.30295 8.01529,1.68333c1.83193,-4.16546 1.07778,-11.6284 2.13242,-19.1566c1.05464,-7.52814 6.08257,-12.8744 9.59334,-12.8744l0.802941,-0.0051769c3.51077,0 8.53869,5.34621 9.59334,12.8744c1.05464,7.52814 0.300491,14.9911 2.13242,19.1566c2.03166,4.61962 6.92536,1.56037 8.01529,-1.68333c0.46781,-1.39223 2.0685,-9.49154 2.74443,-18.0837c0.638228,-8.11298 0.579131,-16.6302 0.53105,-19.6722c1.70164,-2.13412 2.90574,-4.68823 3.39748,-7.50435l2.94422,-16.8612c1.52428,-8.72936 -4.36175,-14.8587 -13.1461,-13.6942c0,0 -10.2967,1.59002 -16.2121,1.59002c-0.0836205,-0.0053367 -0.165895,-0.0031759 -0.246758,-0.0013761c-0.177699,-0.0019283 -0.363363,-0.0058598 -0.556183,-0.0116473Z" transform="translate(22.716, 8.97738)"></path><path d="M0,7.07107l7.07107,-7.07107" transform="translate(94, 0)"></path><path d="M0,0l8.07107,7.07107" transform="translate(94, 33)"></path><path d="M0,0h10" transform="translate(98, 20)"></path><path d="M7.07107,7.07107l-7.07107,-7.07107" transform="translate(6.92893, 0)"></path><path d="M8.07107,0l-8.07107,7.07107" transform="translate(5.92893, 33)"></path><path d="M10,0h-10" transform="translate(0, 20)"></path></g></g></g></svg>