<?xml version="1.0" encoding="UTF-8"?><svg version="1.1" viewBox="0 0 30 30" xmlns="http://www.w3.org/2000/svg" xmlns:xlink="http://www.w3.org/1999/xlink"><!--Generated by IJSVG (https://github.com/curthard89/IJSVG)--><g fill="#000000"><path d="M8.5,5.1h-8c-0.3,0 -0.5,-0.2 -0.5,-0.5v-2.8c0,-1 0.8,-1.8 1.8,-1.8h5.5c1,0 1.8,0.8 1.8,1.8v2.8c-0.1,0.3 -0.3,0.5 -0.6,0.5Zm-7.5,-1h7v-2.3c0,-0.4 -0.3,-0.8 -0.8,-0.8h-5.5c-0.4,0 -0.8,0.3 -0.8,0.8v2.3Z" transform="translate(10.5, 1.9)"></path><path d="M28.5,22h-28c-0.3,0 -0.5,-0.2 -0.5,-0.5v-21c0,-0.3 0.2,-0.5 0.5,-0.5h28c0.3,0 0.5,0.2 0.5,0.5v21c0,0.3 -0.2,0.5 -0.5,0.5Zm-27.5,-1h27v-20h-27v20Z" transform="translate(0.5, 6)"></path><path d="M7,14c-3.9,0 -7,-3.1 -7,-7c0,-3.9 3.1,-7 7,-7c3.9,0 7,3.1 7,7c0,3.9 -3.2,7 -7,7Zm0,-13c-3.3,0 -6,2.7 -6,6c0,3.3 2.7,6 6,6c3.3,0 6,-2.7 6,-6c0,-3.3 -2.7,-6 -6,-6Z" transform="translate(7.5, 10)"></path><path d="M6.5,10h-3c-0.3,0 -0.5,-0.2 -0.5,-0.5v-2.5h-2.5c-0.3,0 -0.5,-0.2 -0.5,-0.5v-3c0,-0.3 0.2,-0.5 0.5,-0.5h2.5v-2.5c0,-0.3 0.2,-0.5 0.5,-0.5h3c0.3,0 0.5,0.2 0.5,0.5v2.5h2.5c0.3,0 0.5,0.2 0.5,0.5v3c0,0.3 -0.2,0.5 -0.5,0.5h-2.5v2.5c0,0.3 -0.2,0.5 -0.5,0.5Zm-2.5,-1h2v-2.5c0,-0.3 0.2,-0.5 0.5,-0.5h2.5v-2h-2.5c-0.3,0 -0.5,-0.2 -0.5,-0.5v-2.5h-2v2.5c0,0.3 -0.2,0.5 -0.5,0.5h-2.5v2h2.5c0.3,0 0.5,0.2 0.5,0.5v2.5Z" transform="translate(9.5, 12)"></path></g></svg>