<?xml version="1.0" encoding="UTF-8"?><svg version="1.1" viewBox="0 0 30 30" xmlns="http://www.w3.org/2000/svg" xmlns:xlink="http://www.w3.org/1999/xlink"><!--Generated by IJSVG (https://github.com/curthard89/IJSVG)--><g transform="translate(-135, -90)"><g transform="translate(150, 105)"><g transform="rotate(45)"><g transform="translate(-150, -105)"><g transform="translate(142.5, 90)"><g fill="#000000" fill-rule="evenodd" stroke="none" stroke-width="1"><path d="M9,6h6v1h-3.00009l-0.0015718,16.787l-3.99833,2.30801v3.90497h-1v-3.90283l-4,-2.30727l0.00157182,-16.7899h-3.00157v-1h6v-5h-2v-1h7v1h-2v5Zm-1,0h-1v-5h1v5Zm2.99984,1l-0.0011341,16.2026l-3.5,2.02237l-3.4987,-2.02013l0.00113416,-16.2049h6.9987Z"></path><path d="M0,9h3v1h-3v-1Zm0,-9h4v1h-4v-1Zm0,6h4v1h-4v-1Zm0,-3h3v1h-3v-1Z" transform="translate(3, 10)"></path></g></g></g></g></g></g></svg>